<?xml version="1.0" encoding="utf-8"?>
<!-- Generator: Adobe Illustrator 27.1.0, SVG Export Plug-In . SVG Version: 6.00 Build 0)  -->
<svg version="1.1" id="Capa_1" xmlns="http://www.w3.org/2000/svg" xmlns:xlink="http://www.w3.org/1999/xlink" x="0px" y="0px"
	 viewBox="0 0 395.3 595.3" style="enable-background:new 0 0 395.3 595.3;" xml:space="preserve">
<style type="text/css">
	.st0{fill:none;stroke:#000000;stroke-width:0;stroke-linecap:round;stroke-linejoin:round;stroke-miterlimit:10;}
	.st1{fill:#FF7F00;}
</style>
<g id="SPLINE_00000091007210344372227740000010453903402322574729_">
	<path class="st0" d="M268.6,274.9c-5.2,35.2-9.3,41.1-31.1,71.3c0,0,0,0,0,0c-7.4,40.5,37.6-13,39.1-26.8c0,0,0,0,0,0
		C280.9,304.7,272.1,289.2,268.6,274.9C268.6,274.8,268.6,274.8,268.6,274.9z"/>
</g>
<g id="SPLINE_00000106148790022659527010000006111913252637192893_">
	<path class="st0" d="M433.8,435.9c5.2,19.6-22.4,9.4-26.6,18.6c0,0,0,0,0,0.1c31.2,22.6-17.7,108.6-3.4,36.3
		c6.9-36.1-28.5-38.8-48.5-58.2c0,0,0,0,0,0c-24.8-36.8-10.1-32.4-26.6-20.2c-1.9,1.4-4.7,0.5-5.5-1.7c-3-9.2,5.7-22,3.1-32
		c0,0,0,0,0,0c-14.6-29-66.2,3.2-54.1,30.7c1.5,3.3,0.8,4.7-2.6,5.9c0,0,0,0,0,0c-4.8,3.5-8.6-8.3-8-12.4c0,0,0,0,0,0
		c-0.8-18-14.1-42.6-34.9-30.4c0,0,0,0,0,0c-36.1,38.9,1,31.1-6.3,51.8c0,0,0,0,0,0c-8.3,7.1-20.6,13-21.2,25.3c0,0,0,0,0,0
		c-3.1,12.4,6.5,20.1,17.1,11.9c0,0,0,0,0,0c8.9-10.7,15.7-4.9,14.6,7.2c0,0,0,0,0,0c-6.9,12.1-16.7,25.2-11.6,39.8v0
		c1.7,8.3,22.7,52.7,0.9,31.5c-5.2-3.9-11.1-27-16.7-18.5c0,0,0,0,0,0c-1.7,42.6,42.2,77,83,74.2c0,0,0,0,0,0
		c15.9,1.9,19.3-23.9,35.7-20.1c7.1,1.4,2.3,10.9,6.8,13.3c0,0,0,0,0,0c21.2,4.3,45.3,4.7,61.7-11.6c0,0,0,0,0,0
		c10.6-5.6,19.4-14.2,21.8-26.5c0,0,0,0,0,0c0.4-13.1,17.4-43,17.9-13.1c0,0,0,0,0,0c1.1,4,7.8,0.3,10.1-1.7c0,0,0,0,0,0
		c9.7-9.5,23.6-15.5,29.6-28.2c0,0,0,0,0,0c5.6-9,0.6-20.9,1.7-31.2c0,0,0,0,0,0c-1.1-14-22.1,1.9-23.4,9.3c0,0,0,0,0,0
		c-15.5,28.7-16.9-6.8-7.2-18.3c12.7-15.2,9.2-55.8-25.7-91.1c-6.2-6.3,2.7-15.9,2.1-24.2c0,0,0,0,0,0c-1.2-4.9-1.7-10.2-3.2-15
		c0,0,0,0,0,0c-2.5-2.8-4.7-5.3-3.9-9.2c0,0,0,0,0,0c-3.5-19.2-3.3-39.2-2.6-59.5c0,0,0,0,0,0c-0.8-4.7-6.9,0-8.3,2.1
		c-15.8,20-23.5,46.8-15.1,71.6c12.2,40.7,18.5,29.1-21.9,32.5c-40.4,4-20.5,18.1-3.8,37.9c0,0,0,0,0,0c5.2,1.4,9-19.4,26.4-14h0
		c37.3,14.4-5.6,53.3,31.5,40.6h0c17.6-3.8-11.5-36.9-18.7-42.9c0,0,0,0,0,0c-15.7-9.6-34.2,5.9-48.6-6.8c0,0,0,0,0,0
		c-2.4-7.5,40.8-5.1,47.3-3.5c0,0,0,0,0,0C411.7,392,433.6,418.9,433.8,435.9C433.8,435.9,433.8,435.9,433.8,435.9z"/>
</g>
<g id="SPLINE_00000066489414005711449110000004379146142286705847_">
	<path class="st0" d="M271.1,259.2C271.1,259.2,271.1,259.2,271.1,259.2c10.2-2.1,17.9,29.4,19.3,39.6c4.3,27.2-20.4,47.9-32.2,68.4
		c0,0,0,0,0,0c9.6,19.7,4.2,11.5,11.4-0.7c0,0,0,0,0,0c14.3-17.8,45.1-24.1,61.3-5.7c0,0,0,0,0,0c11.4,6.4,26.9-6,40.1-5h0
		c1.7-0.1,4.8,0.3,3.2-2.1c0,0,0,0,0,0c-4-3.6-1.7-9.1-4.4-13.6c0,0,0,0,0,0c-6.4-26.4,4.8-57.7,21.1-78.5c0,0,0,0,0,0
		c45.7-42.5,33.2-11.7,26.3,26.7c0,0,0,0,0,0c1,17.8,5.8,34.9,10.5,52v0c8,51-9.5,17.5,22.7,60c0,0,0,0,0,0
		c7.6,13.4,10.5,28.4,13.2,43.4c1.2,9.2-4,18,11.1,14.3c17.2-4.2,6.4,73.7-22,90.7c-27.4,16-25.7-3.3-38.2,24.2
		c-11.8,28.2-43.2,30.9-70.5,31.2c-4,0-7.9-0.8-11.6-2.4c-7.7-3.4-14.8-2.9-21.8,2.1c-2.2,1.6-4.9,2.6-7.6,2.9
		c-40.4,5-70.5-7-98.3-37.6l0,0c-24-19.7-17.5-56.3-12.7-83.4c2.1-10.8-12.2-12.4-15.3-21c0,0,0,0,0,0c-14.1-23.1,13.9-36,21.1-53.9
		c0,0,0,0,0,0c-5.4-17.8,3.4-32,13.4-45c0,0,0,0,0,0c-0.9-22.1,18.4-36,27.5-54.1v0c11.5-18.3,7.6-40.6,14.1-60.4c0,0,0,0,0,0
		c0.2-3.8,4.7-3.1,5.8-6c3.4-7.6,7.1-1.9,7.8,3.6C266.6,248.9,267.5,261.7,271.1,259.2z"/>
</g>
<g id="HATCH_00000146463441058544541530000003505555642606943375_">
	<path class="st1" d="M268.6,274.9c-5.2,35.2-9.3,41.1-31.1,71.3c0,0,0,0,0,0c-7.4,40.5,37.6-13,39.1-26.8c0,0,0,0,0,0
		C280.9,304.7,272.1,289.2,268.6,274.9C268.6,274.8,268.6,274.8,268.6,274.9 M433.8,435.9c5.2,19.6-22.4,9.4-26.6,18.6
		c0,0,0,0,0,0.1c31.2,22.6-17.7,108.6-3.4,36.3c6.9-36.1-28.5-38.8-48.5-58.2c0,0,0,0,0,0c-24.8-36.8-10.1-32.4-26.6-20.2
		c-1.9,1.4-4.7,0.5-5.5-1.7c-3-9.2,5.7-22,3.1-32c0,0,0,0,0,0c-14.6-29-66.2,3.2-54.1,30.7c1.5,3.3,0.8,4.7-2.6,5.9c0,0,0,0,0,0
		c-4.8,3.5-8.6-8.3-8-12.4c0,0,0,0,0,0c-0.8-18-14.1-42.6-34.9-30.4c0,0,0,0,0,0c-36.1,38.9,1,31.1-6.3,51.8c0,0,0,0,0,0
		c-8.3,7.1-20.6,13-21.2,25.3c0,0,0,0,0,0c-3.1,12.4,6.5,20.1,17.1,11.9c0,0,0,0,0,0c8.9-10.7,15.7-4.9,14.6,7.2c0,0,0,0,0,0
		c-6.9,12.1-16.7,25.2-11.6,39.8v0c1.7,8.3,22.7,52.7,0.9,31.5c-5.2-3.9-11.1-27-16.7-18.5c0,0,0,0,0,0c-1.7,42.6,42.2,77,83,74.2
		c0,0,0,0,0,0c15.9,1.9,19.3-23.9,35.7-20.1c7.1,1.4,2.3,10.9,6.8,13.3c0,0,0,0,0,0c21.2,4.3,45.3,4.7,61.7-11.6c0,0,0,0,0,0
		c10.6-5.6,19.4-14.2,21.8-26.5c0,0,0,0,0,0c0.4-13.1,17.4-43,17.9-13.1c0,0,0,0,0,0c1.1,4,7.8,0.3,10.1-1.7c0,0,0,0,0,0
		c9.7-9.5,23.6-15.5,29.6-28.2c0,0,0,0,0,0c5.6-9,0.6-20.9,1.7-31.2c0,0,0,0,0,0c-1.1-14-22.1,1.9-23.4,9.3c0,0,0,0,0,0
		c-15.5,28.7-16.9-6.8-7.2-18.3c12.7-15.2,9.2-55.8-25.7-91.1c-6.2-6.3,2.7-15.9,2.1-24.2c0,0,0,0,0,0c-1.2-4.9-1.7-10.2-3.2-15
		c0,0,0,0,0,0c-2.5-2.8-4.7-5.3-3.9-9.2c0,0,0,0,0,0c-3.5-19.2-3.3-39.2-2.6-59.5c0,0,0,0,0,0c-0.8-4.7-6.9,0-8.3,2.1
		c-15.8,20-23.5,46.8-15.1,71.6c12.2,40.7,18.5,29.1-21.9,32.5c-40.4,4-20.5,18.1-3.8,37.9c0,0,0,0,0,0c5.2,1.4,9-19.4,26.4-14h0
		c37.3,14.4-5.6,53.3,31.5,40.6h0c17.6-3.8-11.5-36.9-18.7-42.9c0,0,0,0,0,0c-15.7-9.6-34.2,5.9-48.6-6.8c0,0,0,0,0,0
		c-2.4-7.5,40.8-5.1,47.3-3.5c0,0,0,0,0,0C411.7,392,433.6,418.9,433.8,435.9C433.8,435.9,433.8,435.9,433.8,435.9 M271.1,259.2
		C271.1,259.2,271.1,259.2,271.1,259.2c10.2-2.1,17.9,29.4,19.3,39.6c4.3,27.2-20.4,47.9-32.2,68.4c0,0,0,0,0,0
		c9.6,19.7,4.2,11.5,11.4-0.7c0,0,0,0,0,0c14.3-17.8,45.1-24.1,61.3-5.7c0,0,0,0,0,0c11.4,6.4,26.9-6,40.1-5h0
		c1.7-0.1,4.8,0.3,3.2-2.1c0,0,0,0,0,0c-4-3.6-1.7-9.1-4.4-13.6c0,0,0,0,0,0c-6.4-26.4,4.8-57.7,21.1-78.5c0,0,0,0,0,0
		c45.7-42.5,33.2-11.7,26.3,26.7c0,0,0,0,0,0c1,17.8,5.8,34.9,10.5,52v0c8,51-9.5,17.5,22.7,60c0,0,0,0,0,0
		c7.6,13.4,10.5,28.4,13.2,43.4c1.2,9.2-4,18,11.1,14.3c17.2-4.2,6.4,73.7-22,90.7c-27.4,16-25.7-3.3-38.2,24.2
		c-11.8,28.2-43.2,30.9-70.5,31.2c-4,0-7.9-0.8-11.6-2.4c-7.7-3.4-14.8-2.9-21.8,2.1c-2.2,1.6-4.9,2.6-7.6,2.9
		c-40.4,5-70.5-7-98.3-37.6l0,0c-24-19.7-17.5-56.3-12.7-83.4c2.1-10.8-12.2-12.4-15.3-21c0,0,0,0,0,0c-14.1-23.1,13.9-36,21.1-53.9
		c0,0,0,0,0,0c-5.4-17.8,3.4-32,13.4-45c0,0,0,0,0,0c-0.9-22.1,18.4-36,27.5-54.1v0c11.5-18.3,7.6-40.6,14.1-60.4c0,0,0,0,0,0
		c0.2-3.8,4.7-3.1,5.8-6c3.4-7.6,7.1-1.9,7.8,3.6C266.6,248.9,267.5,261.7,271.1,259.2z"/>
</g>
<g id="SPLINE_00000007401450634326848940000016708762413543525028_">
	<path class="st0" d="M247.5,510.6c2.3,3,9.1,5.1,7.4-0.7c0,0,0,0,0,0C252.7,509.6,250.5,507.1,247.5,510.6
		C247.5,510.6,247.4,510.6,247.5,510.6z"/>
</g>
<g id="SPLINE_00000183960496412619647100000005147340803812271494_">
	<path class="st0" d="M250.8,496.6c3.5-0.8,7.7,0.7,9.4-2.2c0,0,0,0,0,0C260.8,482.1,255,489.9,250.8,496.6
		C250.7,496.5,250.8,496.6,250.8,496.6z"/>
</g>
<g id="SPLINE_00000065073111318212277610000009117564657825110920_">
	<path class="st0" d="M276.3,520.5c1.9-4.8,3.1-13.6-4.3-11.3c0,0,0,0,0,0C267.4,515.5,268.5,518.1,276.3,520.5
		C276.2,520.5,276.2,520.5,276.3,520.5z"/>
</g>
<g id="SPLINE_00000132793132697409827810000002962474672332105348_">
	<path class="st0" d="M283,483.7c-7.9-2.6-8.3,5.2-8.7,11.1c0,0,0,0,0,0C280,503.4,281.8,488.3,283,483.7
		C283.1,483.7,283.1,483.7,283,483.7z"/>
</g>
<g id="SPLINE_00000077294173599073384080000012605832786038195849_">
	<path class="st0" d="M302.7,498.4c1.1-3.7,2.8-7.8,1.4-11.8c0,0,0,0,0,0C295.7,485.8,290.6,502.8,302.7,498.4
		C302.7,498.4,302.7,498.4,302.7,498.4z"/>
</g>
<g id="SPLINE_00000067201800419635279950000018244625551852631173_">
	<path class="st0" d="M314.7,523.4C314.7,523.4,314.8,523.5,314.7,523.4c2.8,0.3,16.6-9,11.9-10.9
		C315.2,509,315.1,513.3,314.7,523.4z"/>
</g>
<g id="SPLINE_00000182517567511873819860000012446397519892619950_">
	<path class="st0" d="M324.3,491.3c-5.9,10-1.9,10.3,7.9,9.5c0,0,0,0,0,0C339.7,496,330,490.7,324.3,491.3
		C324.3,491.3,324.3,491.3,324.3,491.3z"/>
</g>
<g id="SPLINE_00000158722410603068104410000000959704859038871208_">
	<path class="st0" d="M294.8,505.5c-5.7,17.8,5.1,32.7,5.3,4.9c0,0,0,0,0,0C299.6,507.8,297.3,507.6,294.8,505.5
		C294.9,505.4,294.8,505.4,294.8,505.5z"/>
</g>
<g id="SPLINE_00000157986696472429378960000007331519835850115486_">
	<path class="st0" d="M276.6,464.5c-2.4,6.6,4.7,5.5,9.1,5.4c0,0,0,0,0,0c80.8,17.8,27,13.5,16.1-33.2c-1.1-4.6,1.8-4.6,5.2-3.7
		c0,0,0,0,0,0c1.2,2.8-0.1,6.3,2.8,8.8c0,0,0,0,0,0c6.5,18.1,28.7,26.3,33.9,45.2c19.2,65.9-86,64-111.5,23c0,0,0,0,0,0
		c-4.7-36.6,48.1-46.8,52.5-82.2c0,0,0,0,0,0C296,423.6,285.4,461.4,276.6,464.5C276.6,464.5,276.6,464.5,276.6,464.5z"/>
</g>
<g id="HATCH_00000018198966539125156720000002309471854179035576_">
	<path class="st1" d="M247.5,510.6c2.3,3,9.1,5.1,7.4-0.7c0,0,0,0,0,0C252.7,509.6,250.5,507.1,247.5,510.6
		C247.5,510.6,247.4,510.6,247.5,510.6 M250.8,496.6c3.5-0.8,7.7,0.7,9.4-2.2c0,0,0,0,0,0C260.8,482.1,255,489.9,250.8,496.6
		C250.7,496.5,250.8,496.6,250.8,496.6 M276.3,520.5c1.9-4.8,3.1-13.6-4.3-11.3c0,0,0,0,0,0C267.4,515.5,268.5,518.1,276.3,520.5
		C276.2,520.5,276.2,520.5,276.3,520.5 M283,483.7c-7.9-2.6-8.3,5.2-8.7,11.1c0,0,0,0,0,0C280,503.4,281.8,488.3,283,483.7
		C283.1,483.7,283.1,483.7,283,483.7 M302.7,498.4c1.1-3.7,2.8-7.8,1.4-11.8c0,0,0,0,0,0C295.7,485.8,290.6,502.8,302.7,498.4
		C302.7,498.4,302.7,498.4,302.7,498.4 M314.7,523.4C314.7,523.4,314.8,523.5,314.7,523.4c2.8,0.3,16.6-9,11.9-10.9
		C315.2,509,315.1,513.3,314.7,523.4 M324.3,491.3c-5.9,10-1.9,10.3,7.9,9.5c0,0,0,0,0,0C339.7,496,330,490.7,324.3,491.3
		C324.3,491.3,324.3,491.3,324.3,491.3 M294.8,505.5c-5.7,17.8,5.1,32.7,5.3,4.9c0,0,0,0,0,0C299.6,507.8,297.3,507.6,294.8,505.5
		C294.9,505.4,294.8,505.4,294.8,505.5 M276.6,464.5c-2.4,6.6,4.7,5.5,9.1,5.4c0,0,0,0,0,0c80.8,17.8,27,13.5,16.1-33.2
		c-1.1-4.6,1.8-4.6,5.2-3.7c0,0,0,0,0,0c1.2,2.8-0.1,6.3,2.8,8.8c0,0,0,0,0,0c6.5,18.1,28.7,26.3,33.9,45.2
		c19.2,65.9-86,64-111.5,23c0,0,0,0,0,0c-4.7-36.6,48.1-46.8,52.5-82.2c0,0,0,0,0,0C296,423.6,285.4,461.4,276.6,464.5
		C276.6,464.5,276.6,464.5,276.6,464.5z"/>
</g>
<g id="SPLINE_00000001660377302676169380000013755445372003863996_">
	<path class="st0" d="M296.6,562.6c-18-2.3-37-3.6-51.8-14.9c1.9-5.8,7.7-8.4,13.1-5c28,5.9,56,3.2,84,2
		C352.8,559.8,305.7,559.7,296.6,562.6z"/>
</g>
<g id="HATCH_00000044900646360797935490000013241377702647607427_">
	<path class="st1" d="M296.6,562.6c-18-2.3-37-3.6-51.8-14.9c1.9-5.8,7.7-8.4,13.1-5c28,5.9,56,3.2,84,2
		C352.8,559.8,305.7,559.7,296.6,562.6z"/>
</g>
<g id="SPLINE_00000005246709660038264660000011325718980845639843_">
	<path class="st0" d="M358,465.3C358,465.3,358,465.3,358,465.3c-0.2,3.7-0.4,6.4-0.6,9.1c-0.6,5.9,2.3,10.9,4,16.2
		c1.2,3.7,2.2,7.5,3.2,11.3c0.8,3.2,1.3,6.5,2.1,9.7c1.2,4.8-1.8,9.1-6.7,9.6c-2.2,0.2-4.1-2.4-3.7-5.2c0.2-1.7,0.8-3.3,0.7-5
		c-0.6-6.9-1.5-13.6-5.6-19.6c-1.6-2.4-2.1-5.6-3.1-8.4c-0.7-2.1-1.5-4.3-2.1-6.4c-1-3.5-1.3-6.8,1.6-9.8c1.5-1.6,2-4.1,3.3-6.1
		c0.7-1.1,1.8-2.4,2.9-2.5c0.7-0.1,2,1.4,2.6,2.5C357.1,462.2,357.6,464.2,358,465.3z"/>
</g>
<g id="HATCH_00000176734979290267493910000008998988519860417455_">
	<path class="st1" d="M358,465.3C358,465.3,358,465.3,358,465.3c-0.2,3.7-0.4,6.4-0.6,9.1c-0.6,5.9,2.3,10.9,4,16.2
		c1.2,3.7,2.2,7.5,3.2,11.3c0.8,3.2,1.3,6.5,2.1,9.7c1.2,4.8-1.8,9.1-6.7,9.6c-2.2,0.2-4.1-2.4-3.7-5.2c0.2-1.7,0.8-3.3,0.7-5
		c-0.6-6.9-1.5-13.6-5.6-19.6c-1.6-2.4-2.1-5.6-3.1-8.4c-0.7-2.1-1.5-4.3-2.1-6.4c-1-3.5-1.3-6.8,1.6-9.8c1.5-1.6,2-4.1,3.3-6.1
		c0.7-1.1,1.8-2.4,2.9-2.5c0.7-0.1,2,1.4,2.6,2.5C357.1,462.2,357.6,464.2,358,465.3z"/>
</g>
<g id="SPLINE_00000169533732095190149990000004459920692549489587_">
	<path class="st0" d="M235.6,412.2c-19.2,2.1-15.3-27.7-0.3-28.9c0,0,0,0,0,0C252.4,387.1,254.5,409.5,235.6,412.2z"/>
</g>
<g id="HATCH_00000161598432305019034850000016955292645799917701_">
	<path class="st1" d="M235.6,412.2c-19.2,2.1-15.3-27.7-0.3-28.9c0,0,0,0,0,0C252.4,387.1,254.5,409.5,235.6,412.2z"/>
</g>
<g id="SPLINE_00000172414918481576151750000009987745598420465080_">
	<path class="st0" d="M466.6,489.3C466.6,489.3,466.6,489.3,466.6,489.3c-0.9,2.7-1.9,5.8-2.8,8.8c-1.7,5.2-3.3,10.4-5,15.5
		c-1.3,3.9-3.2,7.3-7,9.3c-1,0.5-1.9,1.2-2.9,1.5c-0.9,0.3-1.8,0.3-2.8,0.2c-1.1-0.1-2.1-0.4-3.2-0.5c-2.7-0.2-4.5-1.9-5.2-4.1
		c-0.4-1.1,0.9-2.8,1.5-4.2c0.5-1.1,1-2.3,1.7-3.3c1.6-2.1,3.5-4.1,5.2-6.2c1.8-2.2,5.1-3.5,4.8-7.1c0-0.2,0.1-0.5,0.3-0.7
		c3.7-2.3,3.5-6.8,5.7-10c0.6-0.9,1.1-1.9,1.7-2.8c1.2-2,2.8-1.8,4.8-1C465.2,485.6,466.7,486.6,466.6,489.3z"/>
</g>
<g id="HATCH_00000020365403392167834700000006763215945130249884_">
	<path class="st1" d="M466.6,489.3C466.6,489.3,466.6,489.3,466.6,489.3c-0.9,2.7-1.9,5.8-2.8,8.8c-1.7,5.2-3.3,10.4-5,15.5
		c-1.3,3.9-3.2,7.3-7,9.3c-1,0.5-1.9,1.2-2.9,1.5c-0.9,0.3-1.8,0.3-2.8,0.2c-1.1-0.1-2.1-0.4-3.2-0.5c-2.7-0.2-4.5-1.9-5.2-4.1
		c-0.4-1.1,0.9-2.8,1.5-4.2c0.5-1.1,1-2.3,1.7-3.3c1.6-2.1,3.5-4.1,5.2-6.2c1.8-2.2,5.1-3.5,4.8-7.1c0-0.2,0.1-0.5,0.3-0.7
		c3.7-2.3,3.5-6.8,5.7-10c0.6-0.9,1.1-1.9,1.7-2.8c1.2-2,2.8-1.8,4.8-1C465.2,485.6,466.7,486.6,466.6,489.3z"/>
</g>
<g id="SPLINE_00000039124862527943158810000015872210661505993896_">
	<path class="st0" d="M261.7,422.1c9.2,3.6-28.1,25.2-31.7,22.1c0,0,0,0,0-0.1C232.8,433.6,249.7,423.2,261.7,422.1
		C261.7,422.1,261.7,422.1,261.7,422.1z"/>
</g>
<g id="HATCH_00000155848958981744548550000006377311582607680926_">
	<path class="st1" d="M261.7,422.1c9.2,3.6-28.1,25.2-31.7,22.1c0,0,0,0,0-0.1C232.8,433.6,249.7,423.2,261.7,422.1
		C261.7,422.1,261.7,422.1,261.7,422.1z"/>
</g>
<g id="SPLINE_00000018921262249859433760000007709660022940641977_">
	<path class="st0" d="M317.9,393.2c-1.7,4.2-2.7,9.7-5.9,12.4c-0.7,0.6-1.7,0.8-2.7,0.6c-15.2-4.5,0.7-32.5,7.8-21.7
		C318.9,387,319.1,390.3,317.9,393.2z"/>
</g>
<g id="HATCH_00000090273099127916983140000008148763567642059956_">
	<path class="st1" d="M317.9,393.2c-1.7,4.2-2.7,9.7-5.9,12.4c-0.7,0.6-1.7,0.8-2.7,0.6c-15.2-4.5,0.7-32.5,7.8-21.7
		C318.9,387,319.1,390.3,317.9,393.2z"/>
</g>
<g id="SPLINE_00000167362997353919548840000015380637399059893121_">
	<path class="st0" d="M278.2,392.4c1.7-1.1,3.9-0.6,5.1,0.9c17.8,23.1-5.2,25.2-7.3,6.6C275.7,396.9,275.9,393.9,278.2,392.4z"/>
</g>
<g id="HATCH_00000006704779242696004400000011603438912899227299_">
	<path class="st1" d="M278.2,392.4c1.7-1.1,3.9-0.6,5.1,0.9c17.8,23.1-5.2,25.2-7.3,6.6C275.7,396.9,275.9,393.9,278.2,392.4z"/>
</g>
</svg>
